<?xml version="1.0" encoding="UTF-8"?><svg width="32px" height="32px" viewBox="0 0 32 32" version="1.1" xmlns="http://www.w3.org/2000/svg" xmlns:xlink="http://www.w3.org/1999/xlink">    <!-- Generator: Sketch 57.1 (83088) - https://sketch.com -->    <title>bot-says</title>    <desc>Created with Sketch.</desc>    <defs>        <path d="M12.4288402,12 L5.57115978,11.9928614 C2.49647819,11.9928614 0,9.30874479 0,5.9964307 C0,2.6841166 2.49647819,0 5.57115978,0 L12.4288402,0 C15.5103242,0 18,2.6841166 18,5.9964307 C18,9.30874479 15.5103242,12 12.4288402,12 Z M12.5112362,1.71428571 L5.48876381,1.71428571 C3.35904069,1.71428571 1.63636364,3.63655462 1.63636364,6 C1.63636364,8.37132353 3.35904069,10.2857143 5.48876381,10.2857143 L12.5112362,10.2857143 C14.6409593,10.2857143 16.3636364,8.37132353 16.3636364,6 C16.3636364,3.63655462 14.6409593,1.71428571 12.5112362,1.71428571 Z" id="path-1"></path>        <filter x="-36.1%" y="-62.5%" width="172.2%" height="208.3%" filterUnits="objectBoundingBox" id="filter-2">            <feOffset dx="0" dy="-1" in="SourceAlpha" result="shadowOffsetOuter1"></feOffset>            <feGaussianBlur stdDeviation="2" in="shadowOffsetOuter1" result="shadowBlurOuter1"></feGaussianBlur>            <feColorMatrix values="0 0 0 0 0   0 0 0 0 0   0 0 0 0 0  0 0 0 0.1 0" type="matrix" in="shadowBlurOuter1"></feColorMatrix>        </filter>    </defs>    <g id="screens" stroke="none" stroke-width="1" fill="none" fill-rule="evenodd">        <g id="chat-stream" transform="translate(-16.000000, -874.000000)">            <g id="bot-says" transform="translate(16.000000, 874.000000)">                <path d="M16,0 C24.836556,-1.623249e-15 32,7.163444 32,16 C32,24.836556 24.836556,32 16,32 C7.163444,32 1.082166e-15,24.836556 0,16 C-1.082166e-15,7.163444 7.163444,1.623249e-15 16,0 Z" id="Rectangle-Copy-6" fill="#3F3A36" transform="translate(16.000000, 16.000000) scale(-1, 1) translate(-16.000000, -16.000000) "></path>                <g id="Group-2" stroke-width="1" transform="translate(7.000000, 10.000000)">                    <g id="O-Symbol-Copy-2" transform="translate(9.000000, 6.000000) rotate(-180.000000) translate(-9.000000, -6.000000) ">                        <use fill="black" fill-opacity="1" filter="url(#filter-2)" xlink:href="#path-1"></use>                        <use fill="#FCFBFA" fill-rule="evenodd" xlink:href="#path-1"></use>                    </g>                    <g id="Group" transform="translate(4.000000, 4.500000)" fill="#FFFFFF">                        <ellipse id="Oval" cx="1.6" cy="1.5" rx="1.6" ry="1.5"></ellipse>                        <ellipse id="Oval-Copy" cx="8.4" cy="1.5" rx="1.6" ry="1.5"></ellipse>                    </g>                </g>            </g>        </g>    </g></svg>