<?xml version="1.0" encoding="UTF-8"?>
<svg width="44px" height="44px" viewBox="0 0 44 44" version="1.1" xmlns="http://www.w3.org/2000/svg" xmlns:xlink="http://www.w3.org/1999/xlink">
    <!-- Generator: Sketch 58 (84663) - https://sketch.com -->
    <desc>Created with Sketch.</desc>
    <g class="contentFill"  id="Artboard-Copy" stroke="none" stroke-width="1" fill="none" fill-rule="evenodd">
        <g id="Icons-/-24-/-AV-/-Mic-On" transform="translate(10.000000, 10.000000)" fill="#100F0E">
            <path d="M7,23 L7,21 L11,21 L11.0004729,18.9378684 C7.05939978,18.4444339 4,15.0725689 4,11 L6,11 C6,14.309 8.691,17 12,17 C15.309,17 18,14.309 18,11 L20,11 C20,15.0722236 16.941119,18.443862 13.0005296,18.9377428 L13,21 L17,21 L17,23 L11,23 L7,23 Z M12,1 C14.206,1 16,2.794 16,5 L16,11 C16,13.206 14.206,15 12,15 C9.794,15 8,13.206 8,11 L8,5 C8,2.794 9.794,1 12,1 Z M12,3 C10.897,3 10,3.897 10,5 L10,11 C10,12.103 10.897,13 12,13 C13.103,13 14,12.103 14,11 L14,5 C14,3.897 13.103,3 12,3 Z" id="Combined-Shape"></path>
        </g>
    </g>
</svg>